<svg xmlns="http://www.w3.org/2000/svg" xmlns:xlink="http://www.w3.org/1999/xlink" width="300" zoomAndPan="magnify" viewBox="0 0 224.87999 225" height="300" preserveAspectRatio="xMidYMid meet" version="1.0"><defs><g/><clipPath id="93a8d86b47"><path d="M 0 0.0585938 L 224.761719 0.0585938 L 224.761719 224.9375 L 0 224.9375 Z M 0 0.0585938 " clip-rule="nonzero"/></clipPath><clipPath id="cfba59bcc5"><path d="M 42.726562 0.0585938 L 182.152344 0.0585938 C 205.75 0.0585938 224.878906 19.191406 224.878906 42.789062 L 224.878906 182.210938 C 224.878906 205.808594 205.75 224.941406 182.152344 224.941406 L 42.726562 224.941406 C 19.128906 224.941406 0 205.808594 0 182.210938 L 0 42.789062 C 0 19.191406 19.128906 0.0585938 42.726562 0.0585938 Z M 42.726562 0.0585938 " clip-rule="nonzero"/></clipPath></defs><g clip-path="url(#93a8d86b47)"><g clip-path="url(#cfba59bcc5)"><path fill="#000000" d="M 0 0.0585938 L 224.878906 0.0585938 L 224.878906 224.941406 L 0 224.941406 Z M 0 0.0585938 " fill-opacity="1" fill-rule="nonzero"/></g></g><g fill="#ffffff" fill-opacity="1"><g transform="translate(37.702267, 161.402995)"><g><path d="M 11.9375 -123.96875 C 15.144531 -127.175781 18.972656 -128.78125 23.421875 -128.78125 C 27.867188 -128.78125 31.695312 -127.175781 34.90625 -123.96875 C 38.113281 -120.757812 39.71875 -116.929688 39.71875 -112.484375 C 39.71875 -108.035156 38.113281 -104.207031 34.90625 -101 C 31.695312 -97.800781 27.867188 -96.203125 23.421875 -96.203125 C 18.972656 -96.203125 15.144531 -97.800781 11.9375 -101 C 8.738281 -104.207031 7.140625 -108.035156 7.140625 -112.484375 C 7.140625 -116.929688 8.738281 -120.757812 11.9375 -123.96875 Z M 9.3125 -79.59375 L 9.3125 0 L 36.765625 0 L 36.765625 -79.59375 Z M 9.3125 -79.59375 "/></g></g></g><g fill="#ffffff" fill-opacity="1"><g transform="translate(84.553298, 161.402995)"><g><path d="M 9.3125 0 L 9.3125 -79.59375 L 36.765625 -79.59375 L 36.765625 -71.21875 L 37.078125 -71.21875 C 44.210938 -78.351562 51.816406 -81.921875 59.890625 -81.921875 C 63.816406 -81.921875 67.71875 -81.398438 71.59375 -80.359375 C 75.476562 -79.328125 79.203125 -77.722656 82.765625 -75.546875 C 86.335938 -73.378906 89.234375 -70.304688 91.453125 -66.328125 C 93.679688 -62.347656 94.796875 -57.71875 94.796875 -52.4375 L 94.796875 0 L 67.34375 0 L 67.34375 -45 C 67.34375 -49.132812 66.019531 -52.753906 63.375 -55.859375 C 60.738281 -58.960938 57.300781 -60.515625 53.0625 -60.515625 C 48.925781 -60.515625 45.175781 -58.910156 41.8125 -55.703125 C 38.445312 -52.492188 36.765625 -48.925781 36.765625 -45 L 36.765625 0 Z M 9.3125 0 "/></g></g></g></svg>